<?xml version="1.0" standalone="no"?>
<!DOCTYPE svg PUBLIC "-//W3C//DTD SVG 20010904//EN"
 "http://www.w3.org/TR/2001/REC-SVG-20010904/DTD/svg10.dtd">
<svg version="1.0" xmlns="http://www.w3.org/2000/svg"
 width="120.000000pt" height="120.000000pt" viewBox="0 0 120.000000 120.000000"
 preserveAspectRatio="xMidYMid meet">
<metadata>
Created by potrace 1.11, written by Peter Selinger 2001-2013
</metadata>
<g transform="translate(0.000000,120.000000) scale(0.100000,-0.100000)"
fill="#000000" stroke="none">
<path d="M469 1144 c-8 -10 -19 -29 -25 -43 l-11 -26 -16 31 c-40 78 -155 47
-145 -39 4 -34 3 -34 -32 -30 -41 6 -75 -18 -85 -60 -5 -20 2 -43 29 -92 42
-76 43 -79 17 -65 -29 15 -47 12 -77 -13 -40 -35 -35 -69 26 -177 30 -52 58
-96 62 -98 5 -2 8 -8 8 -13 0 -11 141 -256 184 -319 89 -132 212 -187 334
-151 98 29 204 115 246 200 36 73 42 101 51 276 7 149 15 192 51 272 21 48 21
54 7 68 -18 18 -74 13 -110 -10 -37 -24 -70 -77 -83 -132 -22 -96 -28 -91
-145 114 -59 103 -116 200 -126 215 -11 15 -19 31 -19 37 0 5 -13 23 -29 40
-33 36 -89 43 -112 15z"/>
<path d="M833 1106 c13 -13 36 -41 50 -63 27 -43 60 -140 52 -154 -3 -4 -1
-10 5 -14 15 -9 20 74 7 125 -11 43 -37 76 -82 107 -44 30 -65 30 -32 -1z"/>
<path d="M696 1093 c77 -71 135 -195 138 -295 0 -12 4 -14 11 -7 16 16 10 149
-8 189 -28 59 -72 101 -132 125 l-40 16 31 -28z"/>
<path d="M125 461 c-7 -23 2 -112 15 -146 15 -40 81 -105 126 -125 57 -26 90
-27 49 -1 -73 44 -177 202 -177 267 0 29 -5 31 -13 5z"/>
<path d="M101 235 c18 -41 49 -86 74 -107 28 -23 94 -40 140 -36 l40 4 -30 8
c-72 20 -139 59 -186 108 -43 44 -48 48 -38 23z"/>
</g>
</svg>
